<svg width="52" height="61" viewBox="0 0 52 61" fill="currentColor"> 
  <path d="M1478,1755.88a25.6,25.6,0,0,1-2.92,11.92c-4.33,8.29-23.08,23.2-23.08,23.2s-18.76-14.91-23.09-23.22a25.628,25.628,0,0,1-2.91-11.9A26,26,0,0,1,1478,1755.88Zm-26-22.2a22.248,22.248,0,0,0-22.3,22.2,22.008,22.008,0,0,0,3.54,12c3.96,6.13,18.76,18.51,18.76,18.51s14.79-12.37,18.76-18.5A22.187,22.187,0,0,0,1452,1733.68Zm17.64,22.2a17.64,17.64,0,1,1-17.64-17.56A17.6,17.6,0,0,1,1469.64,1755.88Zm-17.65-13.85a13.85,13.85,0,1,0,13.93,13.85A13.885,13.885,0,0,0,1451.99,1742.03Z" transform="translate(-1426 -1730)"/>
</svg>
