<svg xmlns="http://www.w3.org/2000/svg" width="52" height="61"><path id="Shape_4_copy" data-name="Shape 4 copy" d="M1478 1755.88a25.6 25.6 0 01-2.92 11.92c-4.33 8.29-23.08 23.2-23.08 23.2s-18.76-14.91-23.09-23.22a25.628 25.628 0 01-2.91-11.9 26 26 0 0152 0zm-26-22.2a22.248 22.248 0 00-22.3 22.2 22.008 22.008 0 003.54 12c3.96 6.13 18.76 18.51 18.76 18.51s14.79-12.37 18.76-18.5a22.187 22.187 0 00-18.76-34.21zm17.64 22.2a17.64 17.64 0 11-17.64-17.56 17.6 17.6 0 0117.64 17.56zm-17.65-13.85a13.85 13.85 0 1013.93 13.85 13.885 13.885 0 00-13.93-13.85z" transform="translate(-1426 -1730)" fill="#fff" fill-rule="evenodd"/></svg>